PathFileType	4	(X/Y/Z)	TRAIL_071_Static_01_markers.trc
DataRate	CameraRate	NumFrames	NumMarkers	Units	OrigDataRate	OrigDataStartFrame	OrigNumFrames
200	200	4	48	mm	200	196	391
Frame#	Time	RSH			LSH			C7			LELB			LWR			RELB			RWR			RASI			LASI			SACR			P1			P2			LTHLP			LTHLD			LTHAP			LTHAD			LLEPI			LPAT			LMEPI			LTIAP			LTIAD			LTILAT			LLMAL			LMMAL			LHEEL			LMFS			LMFL			LP5MT			LP1MT			LTOE			RTHLP			RTHLD			RTHAP			RTHAD			RLEPI			RPAT			RMEPI			RTIAP			RTIAD			RTILAT			RLMAL			RMMAL			RHEEL			RMFS			RMFL			RP5MT			RP1MT			RTOE			
		X1	Y1	Z1	X2	Y2	Z2	X3	Y3	Z3	X4	Y4	Z4	X5	Y5	Z5	X6	Y6	Z6	X7	Y7	Z7	X8	Y8	Z8	X9	Y9	Z9	X10	Y10	Z10	X11	Y11	Z11	X12	Y12	Z12	X13	Y13	Z13	X14	Y14	Z14	X15	Y15	Z15	X16	Y16	Z16	X17	Y17	Z17	X18	Y18	Z18	X19	Y19	Z19	X20	Y20	Z20	X21	Y21	Z21	X22	Y22	Z22	X23	Y23	Z23	X24	Y24	Z24	X25	Y25	Z25	X26	Y26	Z26	X27	Y27	Z27	X28	Y28	Z28	X29	Y29	Z29	X30	Y30	Z30	X31	Y31	Z31	X32	Y32	Z32	X33	Y33	Z33	X34	Y34	Z34	X35	Y35	Z35	X36	Y36	Z36	X37	Y37	Z37	X38	Y38	Z38	X39	Y39	Z39	X40	Y40	Z40	X41	Y41	Z41	X42	Y42	Z42	X43	Y43	Z43	X44	Y44	Z44	X45	Y45	Z45	X46	Y46	Z46	X47	Y47	Z47	X48	Y48	Z48
196	        0.9750000238	      121.0341396727	     1520.0906991959	      -50.1335859299	     -149.2910739980	     1528.0827283859	      -38.9223694801	      -15.1868752218	     1516.9075727463	        8.0513358116	     -428.2795545660	     1400.9734392166	        9.5757842064	     -685.8370360933	     1382.6674222946	      -67.7950382233	      404.9825909533	     1399.3765115738	      -29.3029546738	      654.5699777998	     1425.4647493362	     -152.4713039398	      132.7547821202	      999.8636245728	     -147.4285721779	     -133.3114412628	     1014.0612125397	     -176.0373711586	      -10.5553698741	     1015.9503221512	       20.1029181480	      -54.4516463779	     1018.0723667145	       17.7902579308	       30.2661041715	     1017.2017812729	       20.6916332245	     -201.9021567903	      726.4338731766	     -102.8015613556	     -191.9884440504	      615.6784892082	     -100.3388166428	     -122.8984725676	      710.5410695076	     -201.8386125565	     -124.6990767322	      609.5019578934	     -176.4302849770	     -185.5898705326	      520.4617381096	      -98.3698964119	     -139.3606570564	      506.0616731644	     -152.9940962791	      -76.8433419071	      487.8583550453	      -99.8761653900	     -155.5622723899	      351.8010079861	     -125.6616115570	     -168.3021393619	      247.3515123129	     -115.8430576324	     -221.0487780176	      308.5321784019	      -62.5100135803	     -211.4419397913	      109.5461398363	      -61.6323947906	     -131.8466422163	      106.5821126103	      -87.5153541565	     -171.6080513797	       60.1365007460	       -0.9815692902	     -173.3296123348	       88.2330760360	     -174.6364235878	     -261.2198648058	       42.6182895899	     -155.3098559380	     -262.3637971483	       38.9525853097	     -219.8600769043	     -157.6942411266	       45.6065945327	     -218.2648777962	     -186.3779929481	       53.6533370614	     -257.4169039726	      186.2553897299	      729.9265265465	      -80.2937746048	      177.1790924467	      633.5350871086	      -77.7568221092	      118.8018712201	      720.9971547127	     -187.0416998863	      115.4754701056	      628.6635398865	     -169.6886420250	      170.6525030531	      515.7858133316	      -79.3336033821	      127.9569360413	      496.5544939041	     -139.6512985229	       54.9569445648	      487.6420199871	      -91.5122032166	      149.9276104369	      360.7931733131	     -109.4880700111	      156.3332322039	      251.6461610794	      -94.7097539902	      204.8855665125	      325.9719908237	      -38.5790467262	      196.0355433621	      105.9260815382	      -23.9530205727	      119.8669764199	      117.8671568632	      -56.8747520447	      152.7913751997	       60.3400245309	       29.0634036064	      159.8876210846	       87.9485532641	     -146.9827890396	      243.1866916813	       40.1251651347	     -127.5737285614	      247.1456023850	       39.5047590137	     -183.7750673294	      142.9017278351	       43.8274592161	     -199.6799707413	      176.6664776005	       57.0074208081	     -243.3444261551
197	        0.9800000191	      121.0138219394	     1520.0824737549	      -50.1056313515	     -149.3046787582	     1528.0684232712	      -38.8688445091	      -15.1668657563	     1516.8718099594	        8.1110596657	     -428.2842931352	     1400.9287357330	        9.6584558487	     -685.8497318826	     1382.5823068619	      -67.6637291908	      404.9966278471	     1399.4721174240	      -29.1782021523	      654.5584144988	     1425.4485368729	     -152.4026393890	      132.7858212389	      999.8716115952	     -147.3898291588	     -133.2754400573	     1014.0880346298	     -176.0420799255	      -10.5649932302	     1015.9356594086	       20.1145410538	      -54.4577707551	     1018.0597305298	       17.7906751633	       30.2169191636	     1017.1810388565	       20.6411480904	     -201.8904742799	      726.4386415482	     -102.7388572693	     -191.9835862718	      615.6904101372	     -100.2482175827	     -122.8800696335	      710.5345129967	     -201.8053531647	     -124.7026083074	      609.5234155655	     -176.3867139816	     -185.5765339933	      520.4754471779	      -98.3021855354	     -139.3446830116	      506.0884952545	     -152.9329419136	      -76.8363607131	      487.8341257572	      -99.8031497002	     -155.5281189285	      351.8109321594	     -125.4885196686	     -168.3245060049	      247.3677992821	     -115.7857179642	     -221.0117188297	      308.5331320763	      -62.4582171440	     -211.4062664114	      109.5489859581	      -61.5906119347	     -131.8432149492	      106.6060438752	      -87.5146389008	     -171.5929863058	       60.1372383535	       -0.9757280350	     -173.3588633142	       88.2207527757	     -174.6270656586	     -261.2491008840	       42.6484346390	     -155.3537845612	     -262.3620388113	       38.9582887292	     -219.8696136475	     -157.7078756891	       45.6027165055	     -218.2583212852	     -186.3622424207	       53.6551252007	     -257.3933601379	      186.2885597147	      729.9256920815	      -80.2216529846	      177.2095355191	      633.4987878799	      -77.7210593224	      118.8356298007	      721.0010886192	     -187.0012879372	      115.5468690195	      628.6933422089	     -169.7052717209	      170.6234159865	      515.7724022865	      -79.2500972748	      127.9810908236	      496.5597689152	     -139.6434307098	       55.0235490300	      487.6532256603	      -91.5271639824	      149.9693187870	      360.7736229897	     -109.4533205032	      156.3564184107	      251.6488730907	      -94.6813821793	      204.8934641280	      325.9827494621	      -38.5633707047	      196.0660162367	      105.9450358152	      -23.9482522011	      119.9423911967	      117.8813129663	      -56.8804144859	      152.2798630394	       60.3449568152	       29.0575027466	      159.8924788632	       87.8879949450	     -146.8903422356	      243.1776466765	       40.0976613164	     -127.5638341904	      247.1510562100	       39.5138598979	     -183.7902069092	      142.9272386231	       43.8306480646	     -199.6717453003	      176.6756120123	       57.0001378655	     -243.3416843414
198	        0.9850000143	      121.0231873192	     1520.0680494308	      -50.0900149345	     -149.2874232135	     1528.0485153198	      -38.8292074203	      -15.1907606996	     1516.8685913086	        8.1255435944	     -428.2840845190	     1400.8818864822	        9.7341537476	     -685.8459767900	     1382.5002908707	      -67.5428509712	      405.0003531374	     1399.4716405869	      -29.2189717293	      654.5727196135	     1425.4648685455	     -152.4171829224	      132.8279170193	      999.8681545258	     -147.3701596260	     -133.2340744339	     1014.0752792358	     -176.0313510895	      -10.5586471982	     1015.9192085266	       20.1049447060	      -54.4217099450	     1018.0460214615	       17.7540183067	       30.2069558747	     1017.1601772308	       20.6313133240	     -201.9313183628	      726.3990640640	     -102.7634739876	     -191.9510272346	      615.6862378120	     -100.2145409584	     -122.8736025296	      710.4952931404	     -201.7499804497	     -124.6997994385	      609.4859242439	     -176.3387322426	     -185.5515596471	      520.4784274101	      -98.2538461685	     -139.3673476778	      506.0710906982	     -152.8655290604	      -76.8058878384	      487.8406226635	      -99.7564196587	     -155.5482205949	      351.8293499947	     -125.5147457123	     -168.2954934440	      247.3804205656	     -115.7917976379	     -221.0494038663	      308.5342347622	      -62.4219179153	     -211.4536074005	      109.5251142979	      -61.6108179092	     -131.8515446983	      106.6103205085	      -87.4902606010	     -171.9046887956	       60.1772069931	       -1.0119080544	     -173.3444985948	       88.2400721312	     -174.6391057968	     -261.3434252344	       42.6860824227	     -155.2881598473	     -262.3702642522	       38.9380827546	     -219.8602557182	     -157.6927510105	       45.6365123391	     -218.2525992393	     -186.3786784015	       53.6571033299	     -257.3782205582	      186.3074990906	      729.9237847328	      -80.1633000374	      177.2251817383	      633.5008740425	      -77.6988863945	      118.8943254747	      721.0219502449	     -186.9822144508	      115.5493500628	      628.6793351173	     -169.6482896805	      170.6785949864	      515.7663226128	      -79.3031454086	      128.0035468735	      496.5656101704	     -139.6179795265	       55.0053621628	      487.6303076744	      -91.5241837502	      149.9680223860	      360.8336150646	     -109.5035076141	      156.3774737515	      251.6331672668	      -94.6545004845	      204.9003186621	      325.9628713131	      -38.5504364967	      196.0682514109	      105.9118583798	      -23.9126086235	      119.9203374781	      117.8588420153	      -56.8702220917	      152.3076239027	       60.3198334575	       29.0539860725	      159.8828825154	       87.8927558661	     -146.9421386719	      243.2004901566	       40.1144139469	     -127.5535821915	      247.1519502797	       39.5095497370	     -183.7935447693	      142.9253312745	       43.8433177769	     -199.6731758118	      176.6794118084	       57.0156387985	     -243.3091402054
199	        0.9900000095	      121.0267561473	     1520.0545787811	      -50.0447750092	     -149.3020412527	     1528.0160903931	      -38.7933850288	      -15.1952133529	     1516.8244838715	        8.1767439842	     -428.2828626237	     1400.8244276047	        9.8030567169	     -685.8568844400	     1382.4151754379	      -67.4093961716	      405.1118734278	     1399.4600772858	      -29.1489958763	      654.5986476340	     1425.4670143127	     -152.4019837379	      132.8597906031	      999.8830556870	     -147.3500728607	     -133.2027521930	     1014.0544176102	     -176.0615110397	      -10.5491914801	     1015.9137248993	       20.1227068901	      -54.4245448909	     1018.0461406708	       17.7826285362	       30.2567741819	     1017.2058343887	       20.6388235092	     -201.8620577655	      726.4574766159	     -102.8042435646	     -191.9168737732	      615.6716942787	     -100.1616120338	     -122.8489783607	      710.4849219322	     -201.7408609390	     -124.6742141448	      609.4801425934	     -176.3269305229	     -185.5268833242	      520.4727053642	      -98.2037186623	     -139.3428501688	      506.0815811157	     -152.8101563454	      -76.7909717761	      487.8230094910	      -99.7093915939	     -155.5622723899	      351.8265187740	     -125.5219578743	     -168.3422234855	      247.3770827055	     -115.7547235489	     -221.0136857830	      308.5159659386	      -62.3813867569	     -211.4394810997	      109.5322370529	      -61.5772604942	     -131.8533477388	      106.6114306450	      -87.4869227409	     -171.5994236074	       60.1332969964	       -0.9481906891	     -173.3587292038	       88.2444456220	     -174.6233701706	     -261.2339016996	       42.6534675062	     -155.3192138672	     -262.3701748453	       38.9524474740	     -219.8647260666	     -157.7187386356	       45.6081964076	     -218.2451486588	     -186.3699761234	       53.6469109356	     -257.3633790016	      186.3324138321	      729.9159169197	      -80.1578164101	      177.2506031193	      633.4849596024	      -77.6596665382	      118.9407127895	      721.0187315941	     -186.9493126869	      115.6051400103	      628.6931633949	     -169.7205901146	      170.6460508503	      515.7572031021	      -79.2216062546	      128.0506643452	      496.5925216675	     -139.6316885948	       55.0514738061	      487.6124858856	      -91.5043950081	      150.0146481194	      360.7848584652	     -109.4475388527	      156.3777121701	      251.6437768936	      -94.6385264397	      204.9261423745	      325.9672820568	      -38.5159254074	      196.0592660107	      105.9154421091	      -23.9000916481	      119.9139821329	      117.8653538227	      -56.8786263466	      152.2766443886	       60.3482648730	       29.0635228157	      159.8792615332	       87.8704488277	     -146.8890905380	      243.1968840756	       40.1059910655	     -127.5498867035	      247.1630814471	       39.4925288856	     -183.7798953056	      142.9883780875	       43.7615774572	     -199.6797919273	      176.6874435343	       57.0185706019	     -243.3113455772
